<?xml version="1.0" encoding="UTF-8" standalone="no"?>
<!-- Created with Inkscape (http://www.inkscape.org/) -->

<svg
   xmlns:dc="http://purl.org/dc/elements/1.1/"
   xmlns:cc="http://creativecommons.org/ns#"
   xmlns:rdf="http://www.w3.org/1999/02/22-rdf-syntax-ns#"
   xmlns:svg="http://www.w3.org/2000/svg"
   xmlns="http://www.w3.org/2000/svg"
   xmlns:sodipodi="http://sodipodi.sourceforge.net/DTD/sodipodi-0.dtd"
   xmlns:inkscape="http://www.inkscape.org/namespaces/inkscape"
   width="28mm"
   height="28mm"
   viewBox="0 0 28 28"
   version="1.1"
   id="svg5522"
   inkscape:version="0.92.4 (ca053d0, 2019-01-16)"
   sodipodi:docname="protectelectr.svg">
  <defs
     id="defs5516" />
  <sodipodi:namedview
     id="base"
     pagecolor="#ffffff"
     bordercolor="#666666"
     borderopacity="1.0"
     inkscape:pageopacity="0.0"
     inkscape:pageshadow="2"
     inkscape:zoom="2.8"
     inkscape:cx="192.75575"
     inkscape:cy="21.414013"
     inkscape:document-units="mm"
     inkscape:current-layer="layer1"
     showgrid="false"
     inkscape:window-width="1533"
     inkscape:window-height="845"
     inkscape:window-x="67"
     inkscape:window-y="27"
     inkscape:window-maximized="1" />
  <metadata
     id="metadata5519">
    <rdf:RDF>
      <cc:Work
         rdf:about="">
        <dc:format>image/svg+xml</dc:format>
        <dc:type
           rdf:resource="http://purl.org/dc/dcmitype/StillImage" />
        <dc:title></dc:title>
      </cc:Work>
    </rdf:RDF>
  </metadata>
  <g
     inkscape:label="Calque 1"
     inkscape:groupmode="layer"
     id="layer1"
     transform="translate(0,-269)">
    <g
       id="g4446"
       transform="matrix(0.35277777,0,0,-0.35277777,14.992602,290.13724)">
      <path
         d="m 0,0 c 0,2.354 -1.915,4.269 -4.269,4.269 -2.354,0 -4.268,-1.915 -4.268,-4.269 0,-2.354 1.914,-4.269 4.268,-4.269 C -1.915,-4.269 0,-2.354 0,0 M 3.299,15.653 V -4.526 c 0,-2.145 -1.737,-3.882 -3.881,-3.882 h -7.503 c -2.143,0 -3.881,1.737 -3.881,3.882 v 20.179 c 0,2.144 1.738,3.88 3.881,3.88 h 7.503 c 2.144,0 3.881,-1.736 3.881,-3.88 M -4.269,2.717 c -1.498,0 -2.716,-1.219 -2.716,-2.717 0,-1.497 1.218,-2.716 2.716,-2.716 1.498,0 2.716,1.219 2.716,2.716 0,1.498 -1.218,2.717 -2.716,2.717 m 9.636,42.817 c 0,2.144 -1.736,3.88 -3.88,3.88 h -11.9 c -2.143,0 -3.881,-1.736 -3.881,-3.88 v -52.26 c 0,-2.143 1.738,-3.88 3.881,-3.88 h 11.9 c 2.144,0 3.88,1.737 3.88,3.88 z m 5.175,5.173 v -61.571 c 0,-2.144 -1.737,-3.881 -3.88,-3.881 h -22.25 c -2.142,0 -3.88,1.737 -3.88,3.881 v 61.571 c 0,2.145 1.738,3.881 3.88,3.881 h 22.25 c 2.143,0 3.88,-1.736 3.88,-3.881 M -2.91,36.478 h -2.717 v 10.09 h 2.717 z"
         style="fill:#d3001e;fill-opacity:1;fill-rule:nonzero;stroke:none"
         id="path4448"
         inkscape:connector-curvature="0" />
    </g>
  </g>
</svg>
