<?xml version="1.0" encoding="UTF-8" standalone="no"?>
<!-- Created with Inkscape (http://www.inkscape.org/) -->

<svg
   xmlns:dc="http://purl.org/dc/elements/1.1/"
   xmlns:cc="http://creativecommons.org/ns#"
   xmlns:rdf="http://www.w3.org/1999/02/22-rdf-syntax-ns#"
   xmlns:svg="http://www.w3.org/2000/svg"
   xmlns="http://www.w3.org/2000/svg"
   xmlns:sodipodi="http://sodipodi.sourceforge.net/DTD/sodipodi-0.dtd"
   xmlns:inkscape="http://www.inkscape.org/namespaces/inkscape"
   width="28mm"
   height="28mm"
   viewBox="0 0 28 28"
   version="1.1"
   id="svg5522"
   inkscape:version="0.92.4 (ca053d0, 2019-01-16)"
   sodipodi:docname="eclairageexter.svg">
  <defs
     id="defs5516" />
  <sodipodi:namedview
     id="base"
     pagecolor="#ffffff"
     bordercolor="#666666"
     borderopacity="1.0"
     inkscape:pageopacity="0.0"
     inkscape:pageshadow="2"
     inkscape:zoom="2.8"
     inkscape:cx="192.75575"
     inkscape:cy="21.414013"
     inkscape:document-units="mm"
     inkscape:current-layer="layer1"
     showgrid="false"
     inkscape:window-width="1533"
     inkscape:window-height="845"
     inkscape:window-x="67"
     inkscape:window-y="27"
     inkscape:window-maximized="1" />
  <metadata
     id="metadata5519">
    <rdf:RDF>
      <cc:Work
         rdf:about="">
        <dc:format>image/svg+xml</dc:format>
        <dc:type
           rdf:resource="http://purl.org/dc/dcmitype/StillImage" />
        <dc:title></dc:title>
      </cc:Work>
    </rdf:RDF>
  </metadata>
  <g
     inkscape:label="Calque 1"
     inkscape:groupmode="layer"
     id="layer1"
     transform="translate(0,-269)">
    <g
       id="g4434"
       transform="matrix(0.35277777,0,0,-0.35277777,13.735269,283.22149)">
      <path
         d="m 0,0 h -3.355 v 2.222 h -2.18 V 0 H -8.891 V -2.16 H 0 Z"
         style="fill:#d3001e;fill-opacity:1;fill-rule:nonzero;stroke:none"
         id="path4436"
         inkscape:connector-curvature="0" />
    </g>
    <path
       d="m 21.55825,271.57122 h -3.90983 v -0.40357 h 3.90983 z m -1.96779,1.94169 c -0.7366,0 -1.35573,-0.50271 -1.52824,-1.18004 h 3.05612 c -0.1718,0.67733 -0.79163,1.18004 -1.52788,1.18004 M 16.08808,270.406 v 0.762 h 0.79163 v 1.16487 h 0.39794 c 0.18379,1.10032 1.15076,1.94204 2.31281,1.94204 1.16205,0 2.12866,-0.84208 2.31281,-1.94204 h 0.42439 V 270.406 Z"
       style="fill:#d3001e;fill-opacity:1;fill-rule:nonzero;stroke:none;stroke-width:0.35277775"
       id="path4438"
       inkscape:connector-curvature="0" />
    <g
       id="g4440"
       transform="matrix(0.35277777,0,0,-0.35277777,11.7826,272.7288)">
      <path
         d="M 0,0 V -26.42 H 2.18 V 0 c 0,2.439 2.004,4.424 4.466,4.424 h 4.447 v 2.16 H 6.646 C 2.981,6.584 0,3.63 0,0"
         style="fill:#d3001e;fill-opacity:1;fill-rule:nonzero;stroke:none"
         id="path4442"
         inkscape:connector-curvature="0" />
    </g>
    <path
       d="m 12.95859,292.15404 h -1.58327 v -7.0051 h 1.58327 z m 0,2.32975 h -1.58327 v -1.5681 h 1.58327 z m 0.76905,-10.09721 h -3.12137 v 10.09721 H 9.4223401 v 0.762 H 14.9091 v -0.762 h -1.18146 z"
       style="fill:#d3001e;fill-opacity:1;fill-rule:nonzero;stroke:none;stroke-width:0.35277775"
       id="path4444"
       inkscape:connector-curvature="0" />
  </g>
</svg>
