<?xml version="1.0" encoding="UTF-8" standalone="no"?>
<!-- Created with Inkscape (http://www.inkscape.org/) -->

<svg
   xmlns:dc="http://purl.org/dc/elements/1.1/"
   xmlns:cc="http://creativecommons.org/ns#"
   xmlns:rdf="http://www.w3.org/1999/02/22-rdf-syntax-ns#"
   xmlns:svg="http://www.w3.org/2000/svg"
   xmlns="http://www.w3.org/2000/svg"
   xmlns:sodipodi="http://sodipodi.sourceforge.net/DTD/sodipodi-0.dtd"
   xmlns:inkscape="http://www.inkscape.org/namespaces/inkscape"
   width="28mm"
   height="28mm"
   viewBox="0 0 28 28"
   version="1.1"
   id="svg5522"
   inkscape:version="0.92.4 (ca053d0, 2019-01-16)"
   sodipodi:docname="inprise.svg">
  <defs
     id="defs5516" />
  <sodipodi:namedview
     id="base"
     pagecolor="#ffffff"
     bordercolor="#666666"
     borderopacity="1.0"
     inkscape:pageopacity="0.0"
     inkscape:pageshadow="2"
     inkscape:zoom="2.8"
     inkscape:cx="192.75575"
     inkscape:cy="21.414013"
     inkscape:document-units="mm"
     inkscape:current-layer="layer1"
     showgrid="false"
     inkscape:window-width="1533"
     inkscape:window-height="845"
     inkscape:window-x="67"
     inkscape:window-y="27"
     inkscape:window-maximized="1" />
  <metadata
     id="metadata5519">
    <rdf:RDF>
      <cc:Work
         rdf:about="">
        <dc:format>image/svg+xml</dc:format>
        <dc:type
           rdf:resource="http://purl.org/dc/dcmitype/StillImage" />
        <dc:title></dc:title>
      </cc:Work>
    </rdf:RDF>
  </metadata>
  <g
     inkscape:label="Calque 1"
     inkscape:groupmode="layer"
     id="layer1"
     transform="translate(0,-269)">
    <g
       transform="matrix(0.35277777,0,0,-0.35277777,-35.387083,623.27166)"
       id="g5065">
      <g
         transform="translate(172.3057,934.4268)"
         id="g4280">
        <path
           inkscape:connector-curvature="0"
           id="path4282"
           style="fill:#d3001e;fill-opacity:1;fill-rule:nonzero;stroke:none"
           d="m 0,0 c 0,-1.953 -1.584,-3.536 -3.536,-3.536 h -58.932 c -1.953,0 -3.536,1.583 -3.536,3.536 v 58.931 c 0,1.953 1.583,3.536 3.536,3.536 H -3.536 C -1.584,62.467 0,60.884 0,58.931 Z m -3.536,64.824 h -58.932 c -3.253,-0.004 -5.889,-2.64 -5.893,-5.893 V 0 c 0.004,-3.254 2.64,-5.89 5.893,-5.894 H -3.536 C -0.283,-5.89 2.353,-3.254 2.356,0 v 58.931 c -0.003,3.253 -2.639,5.889 -5.892,5.893" />
      </g>
      <g
         transform="translate(139.3037,939.1406)"
         id="g4284">
        <path
           inkscape:connector-curvature="0"
           id="path4286"
           style="fill:#d3001e;fill-opacity:1;fill-rule:nonzero;stroke:none"
           d="M 0,0 C -13.67,0 -24.751,11.082 -24.751,24.751 -24.751,38.421 -13.67,49.502 0,49.502 13.663,49.488 24.736,38.415 24.751,24.751 24.751,11.082 13.67,0 0,0 M 0,51.86 C -14.972,51.86 -27.108,39.723 -27.108,24.751 -27.108,9.78 -14.972,-2.357 0,-2.357 14.965,-2.34 27.092,9.787 27.108,24.751 27.108,39.723 14.972,51.86 0,51.86" />
      </g>
      <g
         transform="translate(155.5615,979.2959)"
         id="g4288">
        <path
           inkscape:connector-curvature="0"
           id="path4290"
           style="fill:#d3001e;fill-opacity:1;fill-rule:nonzero;stroke:none"
           d="m 0,0 c -0.453,0.467 -1.199,0.478 -1.667,0.024 -0.467,-0.453 -0.478,-1.199 -0.024,-1.667 1.071,-1.134 2.005,-2.39 2.785,-3.743 0.211,-0.365 0.6,-0.59 1.021,-0.589 0.207,0 0.41,0.055 0.59,0.158 0.564,0.326 0.757,1.046 0.431,1.61 C 2.265,-2.696 1.219,-1.293 0.022,-0.024 0.015,-0.016 0.008,-0.008 0,0" />
      </g>
      <g
         transform="translate(157.6768,973.3213)"
         id="g4292">
        <path
           inkscape:connector-curvature="0"
           id="path4294"
           style="fill:#d3001e;fill-opacity:1;fill-rule:nonzero;stroke:none"
           d="M 0,0 Z" />
      </g>
      <g
         transform="translate(151.1143,980.334)"
         id="g4296">
        <path
           inkscape:connector-curvature="0"
           id="path4298"
           style="fill:#d3001e;fill-opacity:1;fill-rule:nonzero;stroke:none"
           d="m 0,0 v -0.004 c 0.396,-0.001 0.765,0.196 0.983,0.525 0.362,0.541 0.215,1.274 -0.326,1.634 -7.084,4.781 -16.277,5.089 -23.665,0.794 -0.563,-0.326 -0.757,-1.047 -0.431,-1.611 0.325,-0.564 1.046,-0.757 1.61,-0.432 6.61,3.844 14.837,3.57 21.176,-0.707 C -0.46,0.069 -0.232,0 0,0" />
      </g>
      <g
         transform="translate(128.6963,961.5352)"
         id="g4300">
        <path
           inkscape:connector-curvature="0"
           id="path4302"
           style="fill:#d3001e;fill-opacity:1;fill-rule:nonzero;stroke:none"
           d="m 0,0 c -1.303,0 -2.357,1.055 -2.357,2.356 0,1.303 1.054,2.358 2.357,2.358 1.302,0 2.356,-1.055 2.356,-2.358 C 2.356,1.055 1.302,0 0,0 m 0,7.071 c -2.604,0 -4.715,-2.11 -4.715,-4.715 0,-2.603 2.111,-4.713 4.715,-4.713 2.604,0 4.714,2.11 4.714,4.713 0,2.605 -2.11,4.715 -4.714,4.715" />
      </g>
      <g
         transform="translate(149.9111,961.5352)"
         id="g4304">
        <path
           inkscape:connector-curvature="0"
           id="path4306"
           style="fill:#d3001e;fill-opacity:1;fill-rule:nonzero;stroke:none"
           d="m 0,0 c -1.302,0 -2.357,1.055 -2.357,2.356 0,1.303 1.055,2.358 2.357,2.358 1.302,0 2.357,-1.055 2.357,-2.358 C 2.357,1.055 1.302,0 0,0 m 0,7.071 c -2.604,0 -4.715,-2.11 -4.715,-4.715 0,-2.603 2.111,-4.713 4.715,-4.713 2.604,0 4.715,2.11 4.715,4.713 0,2.605 -2.111,4.715 -4.715,4.715" />
      </g>
    </g>
  </g>
</svg>
