<?xml version="1.0" encoding="UTF-8" standalone="no"?>
<!-- Created with Inkscape (http://www.inkscape.org/) -->

<svg
   xmlns:dc="http://purl.org/dc/elements/1.1/"
   xmlns:cc="http://creativecommons.org/ns#"
   xmlns:rdf="http://www.w3.org/1999/02/22-rdf-syntax-ns#"
   xmlns:svg="http://www.w3.org/2000/svg"
   xmlns="http://www.w3.org/2000/svg"
   xmlns:sodipodi="http://sodipodi.sourceforge.net/DTD/sodipodi-0.dtd"
   xmlns:inkscape="http://www.inkscape.org/namespaces/inkscape"
   width="81mm"
   height="31mm"
   viewBox="0 0 81 31"
   version="1.1"
   id="svg6443"
   inkscape:version="0.92.3 (5aff6ba, 2018-11-25)"
   sodipodi:docname="logo.svg">
  <defs
     id="defs6437" />
  <sodipodi:namedview
     id="base"
     pagecolor="#ffffff"
     bordercolor="#666666"
     borderopacity="1.0"
     inkscape:pageopacity="0.0"
     inkscape:pageshadow="2"
     inkscape:zoom="2.8"
     inkscape:cx="153.03665"
     inkscape:cy="21.680926"
     inkscape:document-units="mm"
     inkscape:current-layer="layer1"
     showgrid="false"
     inkscape:window-width="1533"
     inkscape:window-height="845"
     inkscape:window-x="67"
     inkscape:window-y="27"
     inkscape:window-maximized="1" />
  <metadata
     id="metadata6440">
    <rdf:RDF>
      <cc:Work
         rdf:about="">
        <dc:format>image/svg+xml</dc:format>
        <dc:type
           rdf:resource="http://purl.org/dc/dcmitype/StillImage" />
        <dc:title></dc:title>
      </cc:Work>
    </rdf:RDF>
  </metadata>
  <g
     inkscape:label="Calque 1"
     inkscape:groupmode="layer"
     id="layer1"
     transform="translate(0,-266)">
    <g
       transform="matrix(0.35277777,0,0,-0.35277777,-32.454866,361.06755)"
       id="g6560">
      <g
         id="g2589">
        <g
           id="g255"
           transform="translate(92.445449,210.78644)">
          <path
             d="m 0,0 c 2.932,17.699 13.14,34.964 26.246,47.484 0.06,0.071 0.137,0.131 0.22,0.188 1.151,1.062 2.685,1.715 4.369,1.715 2.148,0 4.044,-1.054 5.21,-2.663 C 46.785,34.702 53.656,21.641 60.924,7.522 58.044,7.451 55.363,7.102 52.48,7.063 47.353,16.299 42.974,23.799 37.325,32.726 27.389,17.699 16.092,1.43 11.213,-16.182 c -0.17,-1.297 -0.17,-3.643 1.227,-6.003 -0.6,0.608 -0.92,1.027 -2.025,2.294 l -0.133,0.178 C 6.454,-15.017 3.195,-9.899 0.58,-4.439 l -0.049,0.106 c -0.418,0.915 -0.646,1.931 -0.646,2.996 0,0.41 0.032,0.819 0.098,1.213 z"
             style="fill:#ffffff;fill-opacity:1;fill-rule:nonzero;stroke:none"
             id="path257"
             inkscape:connector-curvature="0" />
        </g>
        <g
           id="g259"
           transform="translate(166.25405,186.92604)">
          <path
             d="m 0,0 c -16.716,-6.567 -36.803,-6.655 -54.288,-1.821 -0.087,0.022 -0.189,0.059 -0.276,0.097 -1.507,0.446 -2.848,1.426 -3.712,2.873 -1.1,1.844 -1.175,4.02 -0.389,5.849 4.819,15.413 13.523,29.713 21.924,43.209 1.536,-2.437 3.067,-4.883 4.577,-7.332 -5.305,-9.156 -10.36,-18.153 -15.132,-27.591 18.021,-0.825 37.804,-2.183 55.442,2.657 1.196,0.529 3.22,1.729 4.533,4.14 -0.217,-0.826 -0.417,-1.319 -0.935,-2.912 L 11.66,18.959 C 9.587,13.26 6.866,7.824 3.518,2.783 L 3.446,2.678 C 2.877,1.85 2.127,1.136 1.205,0.584 0.851,0.375 0.493,0.197 0.115,0.053 Z"
             style="fill:#ffffff;fill-opacity:1;fill-rule:nonzero;stroke:none"
             id="path261"
             inkscape:connector-curvature="0" />
        </g>
        <g
           id="g263"
           transform="translate(149.41905,262.82054)">
          <path
             d="m 0,0 c 14.048,-11.147 24.203,-28.438 28.799,-45.98 0.023,-0.083 0.042,-0.184 0.055,-0.284 0.369,-1.517 0.196,-3.174 -0.623,-4.65 -1.04,-1.875 -2.881,-3.023 -4.859,-3.264 -15.718,-3.574 -31.844,-3.272 -47.705,-2.786 1.331,2.552 2.678,5.094 4.04,7.631 10.565,0.013 20.262,0.21 30.813,0.819 -8.324,15.976 -17.072,33.743 -30.105,46.55 -1.053,0.777 -3.105,1.911 -5.857,1.841 0.836,0.231 1.351,0.306 2.996,0.65 l 0.223,0.034 C -16.261,1.64 -10.209,2 -4.168,1.646 l 0.121,-0.017 c 1,-0.072 1.997,-0.362 2.935,-0.873 0.351,-0.211 0.693,-0.43 1,-0.679 z"
             style="fill:#ffffff;fill-opacity:1;fill-rule:nonzero;stroke:none"
             id="path265"
             inkscape:connector-curvature="0" />
        </g>
      </g>
      <g
         transform="translate(197.54115,268.29324)"
         id="g267">
        <path
           inkscape:connector-curvature="0"
           id="path269"
           style="fill:#ffffff;fill-opacity:1;fill-rule:nonzero;stroke:none"
           d="M 0,0 14.627,-28.708 29.155,0 H 30.89 V -34.658 H 29.898 L 29.849,-0.942 14.627,-30.841 H 14.528 L -0.744,-0.942 V -34.658 H -1.735 V 0 Z" />
      </g>
      <g
         transform="translate(240.67835,224.01594)"
         id="g271">
        <path
           inkscape:connector-curvature="0"
           id="path273"
           style="fill:#ffffff;fill-opacity:1;fill-rule:nonzero;stroke:none"
           d="m 0,0 c -1.785,0 -3.372,0.446 -4.562,1.289 l 0.446,0.843 c 1.091,-0.744 2.529,-1.141 4.016,-1.141 2.529,0 4.662,1.885 6,5.256 L 7.189,9.52 -3.421,35.254 h 1.14 L 7.685,10.76 17.503,35.254 h 1.189 L 6.693,5.9 C 5.107,2.082 2.727,0 0,0" />
      </g>
      <g
         transform="translate(231.36485,222.38504)"
         id="g275">
        <path
           inkscape:connector-curvature="0"
           id="path277"
           style="fill:#ffffff;fill-opacity:1;fill-rule:nonzero;stroke:none"
           d="m 0,0 v -29.402 h 15.023 v -5.306 H -5.851 V 0 Z" />
      </g>
      <g
         transform="translate(274.45235,200.71704)"
         id="g279">
        <path
           inkscape:connector-curvature="0"
           id="path281"
           style="fill:#ffffff;fill-opacity:1;fill-rule:nonzero;stroke:none"
           d="M 0,0 -6.545,15.42 -13.09,0 Z m 2.231,-5.206 h -17.502 l -3.323,-7.834 h -6.098 l 15.321,34.708 h 5.999 L 11.801,-13.04 H 5.554 Z" />
      </g>
      <g
         transform="translate(314.81265,210.38604)"
         id="g283">
        <path
           inkscape:connector-curvature="0"
           id="path285"
           style="fill:#ffffff;fill-opacity:1;fill-rule:nonzero;stroke:none"
           d="m 0,0 c 0,4.562 -3.024,6.743 -8.379,6.743 h -7.735 V -6.991 h 7.735 C -3.024,-6.991 0,-4.711 0,0 m 5.603,0.148 c 0,-7.834 -5.008,-12.395 -13.734,-12.395 h -7.983 v -10.462 h -5.851 v 34.708 h 13.834 c 8.726,0 13.734,-4.313 13.734,-11.851" />
      </g>
    </g>
  </g>
</svg>
